<svg width="25" height="25" viewBox="0 0 25 25" fill="none" xmlns="http://www.w3.org/2000/svg">
<g clip-path="url(#clip0_5_814)">
<path d="M14.857 24.9938C7.75664 24.9938 7.70198 24.6993 6.82268 24.0371C6.35627 23.6864 5.47622 23.4434 2.26177 23.234C2.02856 23.2188 1.80669 23.1293 1.65789 22.9489C1.58953 22.8657 -0.0167236 20.5231 -0.0167236 16.7711C-0.0167236 13.0739 1.13289 11.3887 1.18208 11.3106C1.25221 11.1982 1.34979 11.1055 1.46562 11.0413C1.58146 10.9771 1.71174 10.9434 1.84419 10.9434C4.48364 10.9434 8.14263 7.57423 10.6024 1.69298C11.0278 0.675793 11.1157 0.00665283 12.6782 0.00665283C13.5668 0.00665283 14.5629 0.642981 15.0547 1.45941C16.0637 3.12738 15.5512 6.70983 15.0774 8.62428C16.6887 8.61139 19.6055 8.58949 20.9934 8.58949C22.9239 8.58949 24.2016 9.74066 24.2402 11.4235C24.2531 11.9789 24.1801 12.6883 24.0195 13.0555C24.4445 13.4793 24.9926 14.1184 25.0164 14.9414C25.0461 16.0039 24.3504 16.8129 23.9062 17.277C24.0082 17.586 24.2121 17.9957 24.1921 18.4856C24.1433 19.6903 23.2133 20.4664 22.634 20.8715C22.682 21.2012 22.7195 21.8231 22.6136 22.3039C22.1957 24.2231 19.3812 24.9938 14.857 24.9938L14.857 24.9938ZM2.6762 21.6497C5.4762 21.8813 6.97302 22.195 7.76248 22.7891C8.37341 23.2493 8.27927 23.4317 14.857 23.4317C16.8633 23.4317 20.7871 23.3481 21.0879 21.9708C21.2074 21.42 20.6266 20.8786 20.6246 20.8743C20.466 20.4829 20.6426 20.0235 21.0293 19.8544C21.0355 19.8512 22.5953 19.2927 22.6309 18.4208C22.6543 17.8634 22.2715 17.5286 22.2629 17.5145C22.0352 17.1614 22.1184 16.677 22.4637 16.4364C22.4676 16.4333 23.4781 15.8208 23.4535 14.9856C23.4344 14.3224 22.5605 13.8555 22.534 13.8399C22.3386 13.7282 22.1965 13.5349 22.1519 13.3138C22.1082 13.0931 22.1574 12.8614 22.2945 12.6821C22.2945 12.6821 22.6918 12.0509 22.6773 11.4587C22.6488 10.1911 21.2855 10.1513 20.9929 10.1513C19.0222 10.1513 13.961 10.1712 13.961 10.1712C13.6879 10.1724 13.4516 10.0434 13.3047 9.82509C13.1582 9.6067 13.1473 9.33563 13.2332 9.08719C13.9965 6.88915 14.4227 3.44071 13.7148 2.26259C13.5063 1.91532 13.4586 1.56844 12.6773 1.56844C12.5691 1.56844 12.3114 1.65399 12.0426 2.29462C9.43206 8.54071 5.53284 12.1536 2.33909 12.4794C2.0637 13.1075 1.54573 14.4091 1.54573 16.7708C1.54573 19.1813 2.3094 21.0462 2.67622 21.6497H2.6762Z" fill="#0BFF4F"/>
</g>
<defs>
<clipPath id="clip0_5_814">
<rect width="25" height="25" fill="white"/>
</clipPath>
</defs>
</svg>
