<svg width="23" height="23" viewBox="0 0 23 23" fill="none" xmlns="http://www.w3.org/2000/svg">
<path d="M10.5354 1.74269C10.8688 0.863521 12.1302 0.863521 12.4646 1.74269L14.6209 7.7156C14.6961 7.91017 14.8285 8.07736 15.0008 8.19508C15.173 8.3128 15.3768 8.37553 15.5854 8.37498H20.8844C21.8636 8.37498 22.2906 9.59373 21.5209 10.1906L17.75 13.5833C17.5811 13.7132 17.4577 13.8932 17.3974 14.0975C17.3371 14.3019 17.3432 14.5201 17.4146 14.7208L18.7917 20.5573C19.1271 21.4948 18.0417 22.3 17.2209 21.7229L12.099 18.4729C11.9236 18.3496 11.7144 18.2835 11.5 18.2835C11.2856 18.2835 11.0765 18.3496 10.9011 18.4729L5.77919 21.7229C4.95939 22.3 3.87294 21.4937 4.20835 20.5573L5.58544 14.7208C5.65687 14.5201 5.66289 14.3019 5.60263 14.0975C5.54237 13.8932 5.41893 13.7132 5.25002 13.5833L1.47919 10.1906C0.708352 9.59373 1.13752 8.37498 2.1146 8.37498H7.41356C7.6222 8.37567 7.82613 8.313 7.99837 8.19526C8.17061 8.07752 8.30304 7.91026 8.37814 7.7156L10.5344 1.74269H10.5354Z" stroke="#FCF200" stroke-width="2" stroke-linecap="round" stroke-linejoin="round"/>
</svg>
