<svg width="25" height="25" viewBox="0 0 25 25" fill="none" xmlns="http://www.w3.org/2000/svg">
<path d="M10.1426 0.00584717C17.243 0.00584717 17.2981 0.300427 18.1774 0.962561C18.6438 1.31334 19.5238 1.55668 22.7387 1.76608C22.9723 1.78131 23.1937 1.87076 23.3426 2.05123C23.4109 2.13444 25.0172 4.47701 25.0172 8.22855C25.0172 11.9258 23.8676 13.6114 23.8184 13.6899C23.7482 13.8021 23.6506 13.8947 23.5347 13.9589C23.4189 14.023 23.2887 14.0567 23.1563 14.0567C20.5168 14.0567 16.8578 17.4258 14.3977 23.3075C13.9723 24.3246 13.8848 24.9934 12.3219 24.9934C11.4332 24.9934 10.4371 24.357 9.94455 23.5406C8.93598 21.8727 9.44806 18.2902 9.92228 16.3757C8.31095 16.3887 5.39416 16.4109 4.00629 16.4109C2.07582 16.4109 0.798455 15.2598 0.759001 13.5765C0.746501 13.0211 0.819158 12.3113 0.980095 11.9449C0.555486 11.5211 0.00704828 10.8816 -0.0167554 10.0585C-0.046858 8.99642 0.649236 8.18744 1.09299 7.72299C0.991423 7.414 0.787517 7.00424 0.807048 6.51437C0.856243 5.3097 1.78593 4.53314 2.36564 4.12806C2.31796 3.79955 2.28046 3.17728 2.38595 2.69681C2.80392 0.777283 5.61838 0.00584717 10.1426 0.00584717ZM22.3239 3.35082C19.5239 3.11918 18.0271 2.80546 17.2377 2.21093C16.6267 1.75116 16.7213 1.56876 10.1427 1.56876C8.13649 1.56876 4.21266 1.65236 3.91188 3.02931C3.79196 3.58009 4.37282 4.12189 4.37516 4.12579C4.53376 4.51759 4.3568 4.97657 3.97009 5.14572C3.96384 5.14882 2.40446 5.70782 2.36852 6.5797C2.34548 7.13712 2.7279 7.47189 2.73688 7.48553C2.96423 7.83866 2.881 8.32343 2.53608 8.56366C2.53217 8.56678 1.52123 9.17928 1.54626 10.0148C1.5654 10.6777 2.43923 11.1449 2.46579 11.1605C2.6611 11.2723 2.80329 11.4656 2.8474 11.6871C2.89155 11.9074 2.84194 12.1394 2.70522 12.318C2.70522 12.318 2.30795 12.9496 2.32201 13.5414C2.35092 14.8094 3.71418 14.8492 4.00678 14.8492C5.97748 14.8492 11.0388 14.8285 11.0388 14.8285C11.3118 14.8277 11.5481 14.9566 11.6946 15.175C11.8411 15.3933 11.8524 15.6649 11.7661 15.9129C11.0032 18.111 10.577 21.5594 11.2849 22.7375C11.4931 23.0848 11.5411 23.4317 12.3224 23.4317C12.4306 23.4317 12.6883 23.3461 12.9571 22.7055C15.5692 16.4601 19.4684 12.8469 22.6622 12.5211C22.9376 11.893 23.4556 10.5914 23.4556 8.22933C23.4548 5.81879 22.6911 3.95433 22.3239 3.35082Z" fill="#EE0F0F"/>
</svg>
